<svg xmlns="http://www.w3.org/2000/svg" width="24" height="24"><path d="M16.45 6.16h3.72l.01.01c.4 0 .72.32.72.72s-.32.72-.72.72H4.31c-.4 0-.72-.32-.72-.72s.32-.72.72-.72h3.73l.36-1.8c.23-.89.99-1.47 1.86-1.47h3.96c.86 0 1.63.58 1.85 1.42l.38 1.84zm-6.2-1.82a.48.48 0 0 0-.46.35l-.3 1.47h5.48l-.31-1.51c-.04-.16-.23-.31-.45-.31h-3.96zm7.91 5.51c.03-.4.35-.69.77-.67h-.02a.72.72 0 0 1 .67.77l-.59 8.04c-.14 2.03-1.86 3.62-3.89 3.62H9.35c-2.03 0-3.74-1.59-3.89-3.62l-.59-8.04c-.02-.4.27-.74.67-.77.38-.02.74.27.77.67l.59 8.04c.1 1.29 1.18 2.29 2.46 2.29h5.75c1.29 0 2.37-1.01 2.46-2.29l.59-8.04zm-3.78 6.52v-4.33c0-.4-.32-.72-.72-.72s-.72.32-.72.72v4.33c0 .4.32.72.72.72s.72-.32.72-.72zm-3.24-4.33v4.33c0 .4-.32.72-.72.72s-.72-.32-.72-.72v-4.33c0-.4.32-.72.72-.72s.72.32.72.72z"/></svg>
