<svg xmlns="http://www.w3.org/2000/svg" width="24" height="24" viewBox="0 0 25 24"><path d="M11.99 14.65l-.02-.02h-.02l-3.44-3.7c-.27-.29-.25-.75.04-1.02s.75-.25 1.02.04l2.19 2.36V4.08c0-.4.32-.72.72-.72s.72.32.72.72v8.22l2.2-2.36c.27-.29.73-.31 1.02-.04s.31.73.04 1.02l-3.44 3.7-.02.02c-.05.05-.11.1-.18.13-.007.003-.013.008-.02.012-.013.009-.027.018-.04.018-.07.03-.15.05-.23.05h-.06a.54.54 0 0 1-.22-.04c-.02-.01-.07-.03-.07-.03-.07-.03-.13-.07-.19-.13zm7.47.02c0-.4.32-.72.72-.72s.72.32.72.72v1.59c0 2.15-1.75 3.9-3.9 3.9H8c-2.15 0-3.9-1.75-3.9-3.9v-1.59c0-.4.32-.72.72-.72s.72.32.72.72v1.59c0 1.36 1.11 2.46 2.46 2.46h9a2.46 2.46 0 0 0 2.46-2.46v-1.59z"/></svg>
