<svg xmlns="http://www.w3.org/2000/svg" width="24" height="24"><path d="M12.663 5.474a5.66 5.66 0 0 1 7.859 0c2.247 2.17 2.31 5.751.139 7.998l-.009.009-2.25 2.25a5.68 5.68 0 0 1-.611.529l-.001.001a5.66 5.66 0 0 1-7.917-1.142.75.75 0 1 1 1.201-.899 4.16 4.16 0 0 0 5.817.84c.161-.121.312-.251.451-.39l2.246-2.246c1.59-1.651 1.543-4.279-.107-5.872a4.16 4.16 0 0 0-5.775 0 .75.75 0 1 1-1.042-1.079zM7.21 9.272a5.66 5.66 0 0 1 7.917 1.142.75.75 0 1 1-1.201.899 4.16 4.16 0 0 0-5.817-.84 4.24 4.24 0 0 0-.451.39l-2.246 2.246c-1.59 1.651-1.543 4.279.107 5.872 1.61 1.556 4.164 1.556 5.775 0a.75.75 0 0 1 1.042 1.079c-2.193 2.118-5.668 2.118-7.86 0a5.66 5.66 0 0 1-.139-7.998l.009-.009 2.251-2.25a5.74 5.74 0 0 1 .611-.53h.001z"/></svg>
