<svg xmlns="http://www.w3.org/2000/svg" viewBox="0 0 24 24"><path d="M2.25 12c0-5.38 4.37-9.75 9.75-9.75s9.75 4.37 9.75 9.75-4.37 9.75-9.75 9.75S2.25 17.38 2.25 12Zm1.5 0c0 4.55 3.7 8.25 8.25 8.25s8.25-3.7 8.25-8.25-3.7-8.25-8.25-8.25S3.75 7.45 3.75 12Zm11.11-1.8-1.8 1.8 1.81 1.81c.29.29.29.77 0 1.06-.15.15-.34.22-.53.22s-.38-.07-.53-.22L12 13.06l-1.8 1.8c-.29.29-.77.29-1.06 0a.754.754 0 0 1 0-1.06l1.8-1.8-1.8-1.8a.754.754 0 0 1 0-1.06c.29-.29.77-.29 1.06 0l1.8 1.8 1.8-1.8c.29-.29.77-.29 1.06 0 .29.29.29.77 0 1.06Z"/></svg>