<svg xmlns="http://www.w3.org/2000/svg" width="24" height="24"><path d="M17.918 14.32a1.1 1.1 0 0 0-.319.97l.889 4.92a1.08 1.08 0 0 1-.45 1.08 1.1 1.1 0 0 1-1.17.08l-4.429-2.31a1.13 1.13 0 0 0-.5-.131h-.271a.81.81 0 0 0-.27.09l-4.43 2.321a1.17 1.17 0 0 1-.71.11 1.11 1.11 0 0 1-.89-1.271l.89-4.92a1.12 1.12 0 0 0-.319-.979l-3.611-3.5a1.08 1.08 0 0 1-.269-1.13c.134-.396.476-.685.889-.75l4.97-.721a1.11 1.11 0 0 0 .88-.609l2.19-4.49a1.04 1.04 0 0 1 .2-.27l.09-.07a.67.67 0 0 1 .161-.13l.109-.04.17-.07h.421a1.12 1.12 0 0 1 .88.6l2.219 4.47a1.11 1.11 0 0 0 .83.609l4.97.721c.42.06.771.35.91.75.131.401.018.841-.29 1.13l-3.74 3.54z"/></svg>
